<?xml version="1.0" standalone="no"?><!DOCTYPE svg PUBLIC "-//W3C//DTD SVG 1.1//EN" "http://www.w3.org/Graphics/SVG/1.1/DTD/svg11.dtd"><svg t="1494005366913" class="icon" style="" viewBox="0 0 1024 1024" version="1.1" xmlns="http://www.w3.org/2000/svg" p-id="1845" xmlns:xlink="http://www.w3.org/1999/xlink" width="200" height="200"><defs><style type="text/css"></style></defs><path d="M725.881229 353.800955l-38.109969-38.109969c-7.018857-7.009647-18.394952-7.009647-25.413809 0L511.805572 466.240817 366.882901 321.317123c-7.045463-7.048533-18.466584-7.048533-25.50693 0l-38.263465 38.266535c-7.043417 7.051603-7.043417 18.454304 0 25.50693l144.92267 144.920624L306.637796 671.40757c-7.015787 7.015787-7.015787 18.391882 0 25.40767l38.113039 38.125319c7.015787 7.009647 18.394952 7.009647 25.40767 0l141.40352-141.404544 148.665925 148.662855c7.045463 7.060813 18.466584 7.060813 25.51 0l38.263465-38.251186c7.045463-7.054673 7.045463-18.469654 0-25.51L575.331397 529.766642l150.550855-150.551878C732.898039 372.189767 732.898039 360.802416 725.881229 353.800955zM513.363044 64.890916c-248.068865 0-449.167976 201.098087-449.167976 449.167976s201.098087 449.167976 449.167976 449.167976 449.167976-201.098087 449.167976-449.167976S761.431909 64.890916 513.363044 64.890916zM509.569648 893.103788c-211.435527 0-382.838292-171.402765-382.838292-382.838292S298.133098 127.426181 509.569648 127.426181 892.407939 298.828946 892.407939 510.264473 721.005174 893.103788 509.569648 893.103788z" p-id="1846"></path></svg>